<svg width="31" height="31" viewBox="0 0 31 31" fill="currentColor" xmlns="http://www.w3.org/2000/svg">
<path d="M15.8054 9.56142C12.4802 9.56142 9.79665 12.245 9.79665 15.5702C9.79665 18.8954 12.4802 21.579 15.8054 21.579C19.1306 21.579 21.8142 18.8954 21.8142 15.5702C21.8142 12.245 19.1306 9.56142 15.8054 9.56142ZM15.8054 19.4755C13.655 19.4755 11.9002 17.7206 11.9002 15.5702C11.9002 13.4198 13.655 11.6649 15.8054 11.6649C17.9558 11.6649 19.7107 13.4198 19.7107 15.5702C19.7107 17.7206 17.9558 19.4755 15.8054 19.4755ZM22.0603 7.91493C21.284 7.91493 20.657 8.54189 20.657 9.31825C20.657 10.0946 21.284 10.7216 22.0603 10.7216C22.8367 10.7216 23.4636 10.0976 23.4636 9.31825C23.4639 9.1339 23.4277 8.95132 23.3573 8.78095C23.2868 8.61059 23.1835 8.4558 23.0531 8.32544C22.9228 8.19509 22.768 8.09173 22.5976 8.02128C22.4273 7.95084 22.2447 7.9147 22.0603 7.91493ZM27.5183 15.5702C27.5183 13.953 27.533 12.3505 27.4422 10.7362C27.3513 8.86122 26.9236 7.19716 25.5525 5.82607C24.1785 4.45204 22.5173 4.02724 20.6423 3.93642C19.0252 3.8456 17.4226 3.86025 15.8084 3.86025C14.1912 3.86025 12.5886 3.8456 10.9744 3.93642C9.09938 4.02724 7.43532 4.45497 6.06423 5.82607C4.6902 7.20009 4.2654 8.86122 4.17458 10.7362C4.08376 12.3534 4.09841 13.956 4.09841 15.5702C4.09841 17.1845 4.08376 18.7899 4.17458 20.4042C4.2654 22.2792 4.69313 23.9433 6.06423 25.3144C7.43825 26.6884 9.09938 27.1132 10.9744 27.204C12.5916 27.2948 14.1941 27.2802 15.8084 27.2802C17.4256 27.2802 19.0281 27.2948 20.6423 27.204C22.5173 27.1132 24.1814 26.6854 25.5525 25.3144C26.9265 23.9403 27.3513 22.2792 27.4422 20.4042C27.5359 18.7899 27.5183 17.1874 27.5183 15.5702ZM24.9402 22.4784C24.7263 23.0116 24.4685 23.4101 24.0554 23.8202C23.6423 24.2333 23.2468 24.4911 22.7136 24.705C21.1726 25.3173 17.5134 25.1796 15.8054 25.1796C14.0974 25.1796 10.4353 25.3173 8.8943 24.7079C8.3611 24.494 7.96266 24.2362 7.55251 23.8231C7.13942 23.4101 6.88161 23.0145 6.66774 22.4813C6.05837 20.9374 6.19606 17.2782 6.19606 15.5702C6.19606 13.8622 6.05837 10.2001 6.66774 8.65908C6.88161 8.12587 7.13942 7.72743 7.55251 7.31728C7.96559 6.90712 8.3611 6.64638 8.8943 6.43251C10.4353 5.82314 14.0974 5.96083 15.8054 5.96083C17.5134 5.96083 21.1756 5.82314 22.7166 6.43251C23.2498 6.64638 23.6482 6.90419 24.0584 7.31728C24.4715 7.73036 24.7293 8.12587 24.9431 8.65908C25.5525 10.2001 25.4148 13.8622 25.4148 15.5702C25.4148 17.2782 25.5525 20.9374 24.9402 22.4784Z" />
</svg>
